# xmcd
#
# Track frame offsets: 
#        150
#        18917
#        32578
#        37221
#        55440
#        62858
#        75694
#        87072
#        119887
#        121142
#        131958
#        148329
#        163179
#        176498
#        189780
#
# Disc length: 2713 seconds
#
# Revision: 0
# Processed by: cddbd v1.5.1PL0 Copyright (c) Steve Scherf et al.
# Submitted via: ExactAudioCopy v0.95a5
#
DISCID=d90a970f
DTITLE=Lubos Malina - Afterparty
DYEAR=2004
DGENRE=Bluegrass
TTITLE0=Harp Medley
TTITLE1=The Parting glass
TTITLE2=Mezi Reci
TTITLE3=Irish Medley
TTITLE4=Big Mon
TTITLE5=Ezop a Mravenec
TTITLE6=Gejza a Berta
TTITLE7=Bach Medley
TTITLE8=Afterparty
TTITLE9=Vzpominka na Plzen
TTITLE10=Turecky Pochod
TTITLE11=Mindrele
TTITLE12=Beatles Medley
TTITLE13=V Nevysokych Horach
TTITLE14=Scruggs Medley
EXTD=
EXTT0=
EXTT1=
EXTT2=
EXTT3=
EXTT4=
EXTT5=
EXTT6=
EXTT7=
EXTT8=
EXTT9=
EXTT10=
EXTT11=
EXTT12=
EXTT13=
EXTT14=
PLAYORDER=
